<svg xmlns="http://www.w3.org/2000/svg" width="13.675" height="15.067" viewBox="0 0 13.675 15.067"><defs><style>.a{fill:#5884cb;}</style></defs><g transform="translate(0 0.169)"><path class="a" d="M-6961.434-4730.095h-7.1a3.291,3.291,0,0,1-3.288-3.288v-8.492a3.291,3.291,0,0,1,3.288-3.288h7.1a3.291,3.291,0,0,1,3.288,3.288v8.492A3.291,3.291,0,0,1-6961.434-4730.095Zm-2-10.967a.822.822,0,0,0-.589.25.816.816,0,0,0-.232.586.814.814,0,0,0,.251.576l2.121,2.054-2.106,1.945a.812.812,0,0,0-.265.57.813.813,0,0,0,.217.59.81.81,0,0,0,.6.264.82.82,0,0,0,.558-.217l2.746-2.535a.826.826,0,0,0,.264-.6.821.821,0,0,0-.25-.6l-2.745-2.658A.82.82,0,0,0-6963.434-4741.062Zm-3.177,0a.816.816,0,0,0-.557.218l-2.747,2.535a.832.832,0,0,0-.265.6.818.818,0,0,0,.25.6l2.747,2.658a.813.813,0,0,0,.572.231.814.814,0,0,0,.589-.25.812.812,0,0,0,.231-.584.822.822,0,0,0-.25-.577l-2.121-2.053,2.106-1.945a.816.816,0,0,0,.264-.571.816.816,0,0,0-.219-.591A.819.819,0,0,0-6966.611-4741.062Z" transform="translate(6971.822 4744.992)"/></g></svg>