<svg xmlns="http://www.w3.org/2000/svg" width="19.742" height="10.4" viewBox="0 0 19.742 10.4"><defs><style>.a{fill:#ddd;}</style></defs><g transform="translate(-949.565 -1320.85)"><path class="a" d="M10982.146,1270.62a1.2,1.2,0,0,1-.851-.354l-4.074-4.094a1.2,1.2,0,0,1,.021-1.713l4.074-3.906a1.2,1.2,0,1,1,1.66,1.732l-3.191,3.06,3.212,3.228a1.2,1.2,0,0,1-.851,2.046Z" transform="translate(-10027.306 60.63)"/><path class="a" d="M4.073,9.2a1.2,1.2,0,0,1-.851-.354L-.851,4.752A1.2,1.2,0,0,1-1.2,3.892,1.2,1.2,0,0,1-.831,3.04L3.243-.866a1.2,1.2,0,0,1,1.7.036A1.2,1.2,0,0,1,4.9.866L1.713,3.926,4.924,7.153A1.2,1.2,0,0,1,4.073,9.2Z" transform="translate(968.108 1330.05) rotate(180)"/><path class="a" d="M0,9.2a1.2,1.2,0,0,1-.3-.039A1.2,1.2,0,0,1-1.162,7.7L.912-.3a1.2,1.2,0,0,1,1.463-.86A1.2,1.2,0,0,1,3.235.3l-2.073,8A1.2,1.2,0,0,1,0,9.2Z" transform="translate(958.348 1322.05)"/></g></svg>