<svg xmlns="http://www.w3.org/2000/svg" width="10.878" height="12.478" viewBox="0 0 10.878 12.478">
  <g id="Group_1125" data-name="Group 1125" transform="translate(1 1)">
    <path id="Line_69" data-name="Line 69" d="M0,9.8a1,1,0,0,1-1-1V0A1,1,0,0,1,0-1,1,1,0,0,1,1,0V8.8A1,1,0,0,1,0,9.8Z" transform="translate(4.399 0)" fill="#dedede"/>
    <path id="Path_144" data-name="Path 144" d="M3.921,9.878a1,1,0,0,1-.758-.347L-.757,4.988A1,1,0,0,1-.742,3.664L3.178-.671A1,1,0,0,1,4.591-.742,1,1,0,0,1,4.662.671L1.334,4.35,4.677,8.225a1,1,0,0,1-.757,1.653Z" transform="translate(0 10.478) rotate(-90)" fill="#dedede"/>
  </g>
</svg>
