<?xml version="1.0" encoding="UTF-8"?>
<svg width="84px" height="75px" viewBox="0 0 84 75" version="1.1" xmlns="http://www.w3.org/2000/svg" xmlns:xlink="http://www.w3.org/1999/xlink">
    <title>caution</title>
    <g id="Page-1" stroke="none" stroke-width="1" fill="none" fill-rule="evenodd">
        <g id="Artboard" transform="translate(-219.000000, -144.000000)" fill="#FFFFFF" fill-rule="nonzero">
            <g id="caution" transform="translate(219.000000, 144.000000)">
                <path d="M41.9908395,0 C44.5526773,0 46.9189078,1.37004537 48.1943395,3.59182088 L48.1943395,3.59182088 L83.0093395,64.0838209 C84.2914473,66.3036434 84.2939446,69.038361 83.0158932,71.2605215 C81.7378417,73.4826819 79.3728035,74.8557372 76.8093395,74.8638209 L76.8093395,74.8638209 L7.16333955,74.8638209 C4.59987564,74.8557372 2.23483736,73.4826819 0.956785901,71.2605215 C-0.321265557,69.038361 -0.318768258,66.3036434 0.963339545,64.0838209 L0.963339545,64.0838209 L35.7873395,3.59182088 C37.0627712,1.37004537 39.4290018,0 41.9908395,0 Z M41.9913395,56.1468209 C39.503849,56.1468209 37.4873395,58.1691507 37.4873395,60.6638209 C37.4873395,63.1584911 39.503849,65.1808209 41.9913395,65.1808209 C44.4788301,65.1808209 46.4953395,63.1584911 46.4953395,60.6638209 C46.4953395,58.1691507 44.4788301,56.1468209 41.9913395,56.1468209 Z M42.1613395,22.2478209 L41.8203395,22.2478209 C39.4272897,22.2478209 37.4873395,24.1877711 37.4873395,26.5808209 L37.4873395,26.5808209 L37.4873395,45.4518209 C37.4873395,47.8448707 39.4272897,49.7848209 41.8203395,49.7848209 L41.8203395,49.7848209 L42.1613395,49.7848209 C44.5543894,49.7848209 46.4943395,47.8448707 46.4943395,45.4518209 L46.4943395,45.4518209 L46.4943395,26.5808209 C46.4943395,24.1877711 44.5543894,22.2478209 42.1613395,22.2478209 L42.1613395,22.2478209 Z" id="Combined-Shape"></path>
            </g>
        </g>
    </g>
</svg>