<svg xmlns="http://www.w3.org/2000/svg" width="16" height="16" viewBox="0 0 16 16"><defs><style>.a{fill:#5884cb;}.b{fill:#fff;}</style></defs><g transform="translate(-238 -119)"><rect class="a" width="16" height="16" rx="8" transform="translate(238 119)"/><g transform="translate(242.257 122.96)"><g transform="translate(0 0)"><path class="b" d="M42.041-1H37.934a.687.687,0,0,0-.684.686v4.8h.684v-4.8h4.106ZM43.655.962H39.891a.687.687,0,0,0-.684.686v4.8a.687.687,0,0,0,.684.686h3.764a.687.687,0,0,0,.684-.686v-4.8A.687.687,0,0,0,43.655.962Zm0,5.49H39.891v-4.8h3.764Z" transform="translate(-37.052 1.198)"/><path class="b" d="M37.821-1.25h4.316v.944H37.944V4.587H37V-.429A.822.822,0,0,1,37.821-1.25Zm4.071.245H37.821a.577.577,0,0,0-.577.577v4.77H37.7V-.551h4.194ZM39.82.748h3.844a.822.822,0,0,1,.821.821V6.462a.822.822,0,0,1-.821.821H39.82A.822.822,0,0,1,39,6.462V1.57A.822.822,0,0,1,39.82.748Zm3.844,6.291a.577.577,0,0,0,.577-.577V1.57a.577.577,0,0,0-.577-.577H39.82a.577.577,0,0,0-.577.577V6.462a.577.577,0,0,0,.577.577ZM39.7,1.447h4.089V6.585H39.7Zm3.844.245h-3.6V6.34h3.6Z" transform="translate(-37 1.25)"/></g></g></g></svg>