<svg id="Layer_1_14_" xmlns="http://www.w3.org/2000/svg" width="14" height="15.257" viewBox="0 0 14 15.257">
  <g id="Group_220" data-name="Group 220" transform="translate(0)">
    <g id="Group_217" data-name="Group 217" transform="translate(0.006)">
      <g id="Group_216" data-name="Group 216">
        <path id="Path_8" data-name="Path 8" d="M15.386,0c-3.864,0-7,1.026-7,2.291v1.88c0,1.266,3.132,2.291,7,2.291s7-1.025,7-2.291V2.291C22.382,1.026,19.25,0,15.386,0Z" transform="translate(-8.39 0)" fill="#5884cb"/>
      </g>
    </g>
    <g id="Group_219" data-name="Group 219" transform="translate(0 5.437)">
      <g id="Group_218" data-name="Group 218">
        <path id="Path_9" data-name="Path 9" d="M15.36,36.01c-3.689,0-6.73-.936-7-2.122-.013.057,0,3.105,0,3.105,0,1.266,3.132,2.291,7,2.291s7-1.026,7-2.291c0,0,.008-3.049,0-3.105C22.085,35.075,19.049,36.01,15.36,36.01Z" transform="translate(-8.358 -33.888)" fill="#5884cb"/>
      </g>
    </g>
    <path id="Path_10" data-name="Path 10" d="M22.372,61.464c-.266,1.186-3.3,2.122-6.989,2.122s-6.731-.936-7-2.122v3.105c0,1.266,3.132,2.291,7,2.291s7-1.026,7-2.291Z" transform="translate(-8.381 -51.603)" fill="#5884cb"/>
  </g>
</svg>
