<svg xmlns="http://www.w3.org/2000/svg" width="13.828" height="15.235" viewBox="0 0 13.828 15.235"><defs><style>.a{fill:#5884cb;}</style></defs><g transform="translate(0 0.001)"><g transform="translate(0 0)"><path class="a" d="M-6940.173-4729.758H-6948a3,3,0,0,1-3-3v-9.235a3,3,0,0,1,3-3h7.827a3,3,0,0,1,3,3v9.235A3,3,0,0,1-6940.173-4729.758Zm-5.776-10.035a.99.99,0,0,0-.866.5.989.989,0,0,0,0,1l1.959,3.414a.989.989,0,0,0,.867.5.991.991,0,0,0,.869-.5l1.959-3.414a.989.989,0,0,0,0-1,.99.99,0,0,0-.866-.5Z" transform="translate(6951 4744.992)"/></g></g></svg>