<svg xmlns="http://www.w3.org/2000/svg" width="13.676" height="15.067" viewBox="0 0 13.676 15.067"><defs><style>.a{fill:#5884cb;}</style></defs><path class="a" d="M-7025.434-4729.925h-7.1a3.291,3.291,0,0,1-3.288-3.288v-8.491a3.291,3.291,0,0,1,3.288-3.288h7.1a3.292,3.292,0,0,1,3.288,3.288v8.491A3.292,3.292,0,0,1-7025.434-4729.925Zm-6.69-6.456a.923.923,0,0,0-.922.921.923.923,0,0,0,.922.922h3.436a.923.923,0,0,0,.922-.922.923.923,0,0,0-.922-.921Zm0-4a.923.923,0,0,0-.922.921.922.922,0,0,0,.922.92h6.574a.922.922,0,0,0,.921-.92.923.923,0,0,0-.921-.921Z" transform="translate(7035.822 4744.992)"/></svg>