<svg xmlns="http://www.w3.org/2000/svg" width="16" height="16" viewBox="0 0 16 16"><defs><style>.a{fill:#5884cb;}.b{fill:none;stroke:#fff;}.c{fill:#fff;}</style></defs><g transform="translate(-21 -124.141)"><rect class="a" width="16" height="16" rx="8" transform="translate(21 124.141)"/><line class="b" x1="7" y2="7" transform="translate(25.5 128.642)"/><path class="c" d="M4.955,6.963a4.569,4.569,0,0,1-.532-.1,5.5,5.5,0,0,1-1.009-.374A8.1,8.1,0,0,1,1.691,5.337c-.228-.195-.455-.405-.673-.626C.837,4.528.663,4.339.5,4.148S.223,3.815.154,3.724A2.451,2.451,0,0,1,0,3.511C0,3.5,0,3.5,0,3.5s.165-.236.44-.561c.161-.191.332-.379.508-.561.218-.226.444-.441.671-.64A8.213,8.213,0,0,1,3.363.542,5.523,5.523,0,0,1,4.394.149,4.564,4.564,0,0,1,4.94.039a4.063,4.063,0,0,1,1.125,0A4.541,4.541,0,0,1,6.611.15a5.527,5.527,0,0,1,1.033.4,8.282,8.282,0,0,1,1.749,1.2c.227.2.453.416.672.643.175.181.346.37.507.561.276.325.431.545.432.547h0c-.016.023-.168.236-.432.547-.162.19-.332.379-.507.561-.219.227-.445.443-.672.643a8.282,8.282,0,0,1-1.749,1.2,5.527,5.527,0,0,1-1.033.4,4.537,4.537,0,0,1-.546.111A4.111,4.111,0,0,1,5.5,7,4.153,4.153,0,0,1,4.955,6.963Zm.088-5.756a2.127,2.127,0,0,0-.418.137,2.191,2.191,0,0,0-.378.217,2.272,2.272,0,0,0-.329.287,2.346,2.346,0,0,0-.272.348,2.4,2.4,0,0,0-.205.4,2.441,2.441,0,0,0-.13.442,2.508,2.508,0,0,0,0,.948,2.44,2.44,0,0,0,.13.442,2.4,2.4,0,0,0,.205.4,2.346,2.346,0,0,0,.272.348,2.272,2.272,0,0,0,.329.287,2.19,2.19,0,0,0,.378.217,2.119,2.119,0,0,0,1.732,0,2.192,2.192,0,0,0,.378-.217,2.274,2.274,0,0,0,.329-.287,2.345,2.345,0,0,0,.272-.348,2.4,2.4,0,0,0,.205-.4,2.44,2.44,0,0,0,.13-.442,2.509,2.509,0,0,0,0-.948,2.441,2.441,0,0,0-.13-.442,2.4,2.4,0,0,0-.205-.4,2.346,2.346,0,0,0-.272-.348,2.273,2.273,0,0,0-.329-.287,2.19,2.19,0,0,0-.378-.217,2.123,2.123,0,0,0-1.314-.137ZM4.406,3.5A1.129,1.129,0,0,1,5.5,2.341,1.129,1.129,0,0,1,6.6,3.5,1.129,1.129,0,0,1,5.5,4.659,1.129,1.129,0,0,1,4.406,3.5Z" transform="translate(23.498 128.642)"/></g></svg>