<svg xmlns="http://www.w3.org/2000/svg" width="12.151" height="17.822" viewBox="0 0 12.151 17.822"><defs><style>.a{fill:#5884cb;}</style></defs><g transform="translate(-2.835 9.002) rotate(-45)"><g transform="translate(0 4.01)"><g transform="translate(0 0)"><path class="a" d="M7.768.852a2.878,2.878,0,0,0-.5-.393,3.018,3.018,0,0,0-3.7.393L.868,3.5A2.88,2.88,0,0,0,0,5.552,2.941,2.941,0,0,0,2.968,8.464a2.983,2.983,0,0,0,2.1-.848L7.295,5.433a.206.206,0,0,0,.063-.149.21.21,0,0,0-.213-.207H7.059A3.636,3.636,0,0,1,5.7,4.82a.215.215,0,0,0-.231.046l-1.6,1.571a1.292,1.292,0,0,1-1.8,0,1.23,1.23,0,0,1,0-1.765L4.776,2.02a1.292,1.292,0,0,1,1.8,0,.883.883,0,0,0,1.192,0,.812.812,0,0,0,0-1.168Z"/></g></g><g transform="translate(4.711 0)"><g transform="translate(0 0)"><path class="a" d="M7.15.852a3.014,3.014,0,0,0-4.2,0L.723,3.031a.2.2,0,0,0-.045.229.212.212,0,0,0,.2.127H.957a3.629,3.629,0,0,1,1.356.26A.215.215,0,0,0,2.544,3.6l1.6-1.563a1.292,1.292,0,0,1,1.8,0,1.23,1.23,0,0,1,0,1.765L3.952,5.749l-.017.019-.7.678a1.292,1.292,0,0,1-1.8,0,.883.883,0,0,0-1.192,0,.817.817,0,0,0,0,1.172A2.946,2.946,0,0,0,1.1,8.2c.045.021.089.037.134.056s.091.033.136.05.091.031.136.044l.125.033c.085.021.17.037.257.052a3.013,3.013,0,0,0,.316.029h.161l.127-.015c.047,0,.1-.012.151-.012h.072l.146-.021L2.925,8.4l.123-.025h.023a2.986,2.986,0,0,0,1.377-.765l2.7-2.646A2.868,2.868,0,0,0,7.15.852Z"/></g></g></g></svg>