<svg id="Group_1168" data-name="Group 1168" xmlns="http://www.w3.org/2000/svg" width="12.923" height="14.099" viewBox="0 0 12.923 14.099">
  <path id="Ellipse_63" data-name="Ellipse 63" d="M5.781,2A3.822,3.822,0,1,0,9.562,5.821,3.806,3.806,0,0,0,5.781,2m0-2A5.822,5.822,0,1,1,0,5.821,5.8,5.8,0,0,1,5.781,0Z" transform="translate(0 0)" fill="#fff"/>
  <path id="Line_188" data-name="Line 188" d="M1,5.154a1,1,0,0,1-1-1V1A1,1,0,1,1,2,1V4.154A1,1,0,0,1,1,5.154Z" transform="translate(8.078 10.151) rotate(-40)" fill="#fff"/>
</svg>
