<svg xmlns="http://www.w3.org/2000/svg" width="14" height="15.68" viewBox="0 0 14 15.68">
  <path id="secure" d="M26.106,2.195a.513.513,0,0,0-.37-.423L19.434.019a.512.512,0,0,0-.275,0l-6.3,1.753a.512.512,0,0,0-.37.423c-.037.263-.87,6.473,1.268,9.562a10.062,10.062,0,0,0,5.421,3.909.514.514,0,0,0,.241,0,10.061,10.061,0,0,0,5.421-3.909C26.977,8.668,26.143,2.458,26.106,2.195ZM23.361,5.821l-4.3,4.3a.512.512,0,0,1-.725,0L15.679,7.461a.512.512,0,0,1,0-.725l.528-.528a.512.512,0,0,1,.725,0L18.7,7.977l3.409-3.409a.512.512,0,0,1,.725,0l.528.528A.512.512,0,0,1,23.361,5.821Z" transform="translate(-12.296 -0.001)" fill="#5884cb"/>
</svg>
