<?xml version="1.0" encoding="UTF-8"?>
<svg width="8px" height="16px" viewBox="0 0 8 16" version="1.1" xmlns="http://www.w3.org/2000/svg"
     xmlns:xlink="http://www.w3.org/1999/xlink">
    <title>sort_asc</title>
    <g id="Page-1" stroke="none" stroke-width="1" fill="none" fill-rule="evenodd">
        <g id="Artboard" transform="translate(-87.000000, -69.000000)" fill="#FFFFFF" fill-rule="nonzero">
            <g id="sort_asc" transform="translate(87.000000, 69.000000)">
                <path d="M2.82566761,9.87343462 C3.00800689,9.57921769 3.32953004,9.40021731 3.67566761,9.40021731 C4.02180517,9.40021731 4.34332833,9.57921769 4.52566761,9.87343462 L7.21266761,14.2374346 C7.40198947,14.5459723 7.40978742,14.9327361 7.23305587,15.2486541 C7.05632431,15.5645722 6.72265964,15.7603142 6.36066761,15.7604346 L0.999667609,15.7604346 C0.637675579,15.7603142 0.304010909,15.5645722 0.127279352,15.2486541 C-0.0494522044,14.9327361 -0.0416542534,14.5459723 0.147667609,14.2374346 L2.82566761,9.87343462 Z"
                      id="Path" fill-opacity="0.3"
                      transform="translate(3.680168, 12.580326) rotate(180.000000) translate(-3.680168, -12.580326) "></path>
                <path d="M2.82966761,0.473217312 C3.01200689,0.179000382 3.33353004,0 3.67966761,0 C4.02580517,0 4.34732833,0.179000382 4.52966761,0.473217312 L7.21666761,4.83721731 C7.40598947,5.14575495 7.41378742,5.53251878 7.23705587,5.84843681 C7.06032431,6.16435484 6.72665964,6.3600969 6.36466761,6.36021731 L1.00366761,6.36021731 C0.641675579,6.3600969 0.308010909,6.16435484 0.131279352,5.84843681 C-0.0454522044,5.53251878 -0.0376542534,5.14575495 0.151667609,4.83721731 L2.82966761,0.473217312 Z"
                      id="Path"></path>
            </g>
        </g>
    </g>
</svg>