<svg id="Component_108_1" data-name="Component 108 – 1" xmlns="http://www.w3.org/2000/svg" width="24.215" height="24.215" viewBox="0 0 24.215 24.215">
  <path id="Path_278" data-name="Path 278" d="M12.107,0A12.107,12.107,0,1,1,0,12.107,12.107,12.107,0,0,1,12.107,0Z" fill="#5884cb"/>
  <g id="Group_841" data-name="Group 841" transform="translate(16.547 17.529) rotate(180)">
    <path id="Line_69" data-name="Line 69" d="M0,9.8a1,1,0,0,1-1-1V0A1,1,0,0,1,0-1,1,1,0,0,1,1,0V8.8A1,1,0,0,1,0,9.8Z" transform="translate(4.399 0)" fill="#dedede"/>
    <path id="Path_144" data-name="Path 144" d="M3.921,9.878a1,1,0,0,1-.758-.347L-.757,4.988A1,1,0,0,1-.742,3.664L3.178-.671A1,1,0,0,1,4.591-.742,1,1,0,0,1,4.662.671L1.334,4.35,4.677,8.225a1,1,0,0,1-.757,1.653Z" transform="translate(0 10.478) rotate(-90)" fill="#dedede"/>
  </g>
</svg>
