<svg xmlns="http://www.w3.org/2000/svg" width="9.458" height="10.783" viewBox="0 0 9.458 10.783"><defs><style>.a{fill:#5884cb;}</style></defs><g transform="translate(0 0)"><path class="a" d="M43.3-1H38.115a.868.868,0,0,0-.865.867v6.07h.865V-.133H43.3Zm2.04,2.479H40.587a.868.868,0,0,0-.865.867v6.07a.868.868,0,0,0,.865.867h4.756a.868.868,0,0,0,.865-.867V2.346A.868.868,0,0,0,45.343,1.479Zm0,6.937H40.587V2.346h4.756Z" transform="translate(-37 1.25)"/><path class="a" d="M38.038-1.25h5.454V-.057h-5.3V6.125H37V-.212A1.039,1.039,0,0,1,38.038-1.25Zm5.144.309H38.038a.729.729,0,0,0-.728.728V5.815h.574V-.367h5.3ZM40.563,1.275H45.42a1.039,1.039,0,0,1,1.038,1.038V8.495A1.039,1.039,0,0,1,45.42,9.533H40.563a1.039,1.039,0,0,1-1.038-1.038V2.313A1.039,1.039,0,0,1,40.563,1.275ZM45.42,9.223a.729.729,0,0,0,.728-.728V2.313a.729.729,0,0,0-.728-.729H40.563a.729.729,0,0,0-.728.729V8.495a.729.729,0,0,0,.728.728ZM40.408,2.158h5.167V8.65H40.408Zm4.857.309H40.717V8.34h4.548Z" transform="translate(-37 1.25)"/></g></svg>