<?xml version="1.0" encoding="UTF-8"?>
<svg width="16px" height="16px" viewBox="0 0 16 16" version="1.1" xmlns="http://www.w3.org/2000/svg" xmlns:xlink="http://www.w3.org/1999/xlink">
    <title>safari-pinned-tab</title>
    <g id="safari-pinned-tab" stroke="none" stroke-width="1" fill="none" fill-rule="evenodd">
        <path d="M7.61060917,1.34303067 C11.5790441,1.34303067 14.7960539,4.44587817 14.7960539,8.27347836 L14.7960539,8.4121287 C14.7960539,12.2397289 11.5790441,15.3425764 7.61060917,15.3425764 L2.43708895,15.3425764 C1.65760282,15.3564169 1.01434724,14.7360098 1,13.9565328 L1,2.72907423 C1.01434724,1.94959726 1.65760282,1.32919012 2.43708895,1.34303067 L7.61060917,1.34303067 Z M7.99587131,2.53231657 C7.70233825,2.72800528 2.81971275,9.32534218 2.7122762,9.4792657 C2.60483964,9.63318923 2.7122762,9.82172094 2.9079649,9.82172094 L7.1641943,9.82172094 L7.1641943,9.82172094 C6.83804646,12.397344 6.67497253,13.7834724 6.67497253,13.980106 C6.67497253,14.2750564 6.91958342,14.4204056 7.1641943,14.2247169 C7.40880519,14.0290282 12.33249,7.3957552 12.4477894,7.22884556 C12.5630888,7.06193592 12.3988672,6.88639032 12.2031785,6.88639032 L7.80018261,6.88639032 L7.80018261,6.88639032 C7.80018261,6.88639032 8.47219118,3.06399479 8.48509308,2.77692745 C8.49799499,2.48986011 8.28940438,2.33662786 7.99587131,2.53231657 Z" id="Combined-Shape" fill="#000000" fill-rule="nonzero"></path>
    </g>
</svg>