<svg xmlns="http://www.w3.org/2000/svg" width="10.714" height="10.723" viewBox="0 0 10.714 10.723"><defs><style>.a{fill:#ddd;}</style></defs><g transform="translate(-0.213)"><g transform="translate(0.213 4.915)"><g transform="translate(0)"><path class="a" d="M2.67,234.667H.436a.223.223,0,0,0-.223.223v5.362a.223.223,0,0,0,.223.223H2.67a.223.223,0,0,0,.223-.223V234.89A.223.223,0,0,0,2.67,234.667Z" transform="translate(-0.213 -234.667)"/></g></g><g transform="translate(4.225)"><path class="a" d="M194.243,0h-2.234a.223.223,0,0,0-.223.223V10.5a.223.223,0,0,0,.223.223h2.234a.223.223,0,0,0,.223-.223V.223A.223.223,0,0,0,194.243,0Z" transform="translate(-191.786)"/></g><g transform="translate(8.246 2.234)"><path class="a" d="M386.243,106.667h-2.234a.223.223,0,0,0-.223.223v8.042a.223.223,0,0,0,.223.223h2.234a.223.223,0,0,0,.223-.223V106.89A.223.223,0,0,0,386.243,106.667Z" transform="translate(-383.786 -106.667)"/></g></g></svg>