<svg xmlns="http://www.w3.org/2000/svg" width="8.699" height="13.887" viewBox="0 0 8.699 13.887"><defs><style>.a{fill:#ddd;}</style></defs><path class="a" d="M4.184-.564a9.869,9.869,0,0,1-3.5-.813V-4.134a11.963,11.963,0,0,0,2.092.818,7.239,7.239,0,0,0,1.984.328,2.358,2.358,0,0,0,1.033-.17.591.591,0,0,0,.328-.569.578.578,0,0,0-.237-.465,3.659,3.659,0,0,0-.789-.432Q4.541-4.864,3.6-5.2A6.745,6.745,0,0,1,1.9-6.08,3.056,3.056,0,0,1,.959-7.168a3.394,3.394,0,0,1-.295-1.5,2.7,2.7,0,0,1,.88-2.142,4.668,4.668,0,0,1,2.64-.955V-12.9H5.9v1.121a9.743,9.743,0,0,1,3.329.813L8.243-8.6a7.743,7.743,0,0,0-3.129-.78,1.939,1.939,0,0,0-.934.162.523.523,0,0,0-.27.477.586.586,0,0,0,.2.452,2.746,2.746,0,0,0,.677.4q.481.22,1.336.51a6.458,6.458,0,0,1,2.49,1.4,2.793,2.793,0,0,1,.755,2.021,3.042,3.042,0,0,1-.884,2.266A4.3,4.3,0,0,1,5.9-.614v1.6H4.184Z" transform="translate(-0.664 12.899)"/></svg>