<svg xmlns="http://www.w3.org/2000/svg" width="16.64" height="18.333" viewBox="0 0 16.64 18.333"><defs><style>.a{fill:#6c6c6c;}</style></defs><g transform="translate(-1511.36 -247.668)"><path class="a" d="M2,0H5.015a2,2,0,0,1,2,2V5.728a2,2,0,0,1-2,2H2a2,2,0,0,1-2-2V2A2,2,0,0,1,2,0Z" transform="translate(1511.36 247.668)"/><path class="a" d="M2,0H5.015a2,2,0,0,1,2,2V5.728a2,2,0,0,1-2,2H2a2,2,0,0,1-2-2V2A2,2,0,0,1,2,0Z" transform="translate(1511.36 258.272)"/><path class="a" d="M2,0H5.015a2,2,0,0,1,2,2V5.728a2,2,0,0,1-2,2H2a2,2,0,0,1-2-2V2A2,2,0,0,1,2,0Z" transform="translate(1520.985 247.668)"/><path class="a" d="M2,0H5.015a2,2,0,0,1,2,2V5.728a2,2,0,0,1-2,2H2a2,2,0,0,1-2-2V2A2,2,0,0,1,2,0Z" transform="translate(1520.985 258.272)"/></g></svg>