<svg xmlns="http://www.w3.org/2000/svg" width="150.325" height="33" viewBox="0 0 150.325 33"><defs><style>.a{fill:#fff;}.b{fill:#508cef;}</style></defs><g transform="translate(-51 -42)"><path class="a" d="M-45.172-16.1a12.235,12.235,0,0,1,3.324.391A4.633,4.633,0,0,1-39.64-14.4a5.563,5.563,0,0,1,1.219,2.5,17.329,17.329,0,0,1,.38,3.967,17.329,17.329,0,0,1-.38,3.967,5.563,5.563,0,0,1-1.219,2.5A4.633,4.633,0,0,1-41.848-.161,12.235,12.235,0,0,1-45.172.23q-1.909,0-3.507-.069T-51.7,0l1.771-3.105q.828.069,2.047.1t2.714.035a2.575,2.575,0,0,0,1.553-.414,2.4,2.4,0,0,0,.793-1.495,15.578,15.578,0,0,0,.23-3.059,15.578,15.578,0,0,0-.23-3.059,2.4,2.4,0,0,0-.793-1.495,2.575,2.575,0,0,0-1.553-.414h-4.6L-51.7-15.87q1.449-.092,3.024-.161T-45.172-16.1Zm-2.208.23V0H-51.7V-15.87Zm15.985-.069h2.726q1.391,0,2.737.057t2.472.2l-.207,3.082H-29.6a1.085,1.085,0,0,0-.782.264.956.956,0,0,0-.276.724v7.36a.956.956,0,0,0,.276.724,1.085,1.085,0,0,0,.782.265h5.934l.207,3.082q-1.127.115-2.472.173t-2.737.069q-1.392.012-2.726.012a3.579,3.579,0,0,1-2.576-.943,3.246,3.246,0,0,1-.989-2.461v-9.2a3.237,3.237,0,0,1,.989-2.472A3.6,3.6,0,0,1-31.395-15.939Zm-3.151,6.3h10.051v2.921H-34.546Zm19.8-6.555q1.219.023,2.691.161a13.635,13.635,0,0,1,2.852.575l-.276,2.806q-1.012-.023-2.472-.046t-2.864-.023q-.529,0-.885.034a1.756,1.756,0,0,0-.575.138.622.622,0,0,0-.311.3,1.294,1.294,0,0,0-.092.541,1.048,1.048,0,0,0,.333.839,3.887,3.887,0,0,0,1.184.587l2.967,1.1A5.713,5.713,0,0,1-9.488-7.3a4.975,4.975,0,0,1,.771,2.886,6.874,6.874,0,0,1-.322,2.254A2.945,2.945,0,0,1-10.086-.713a4.976,4.976,0,0,1-1.909.782,14.332,14.332,0,0,1-2.932.253q-.805,0-2.358-.115a21.4,21.4,0,0,1-3.507-.6l.253-3.036q1.38.023,2.449.057t1.863.046q.793.012,1.253.012a6.7,6.7,0,0,0,1.2-.081.9.9,0,0,0,.575-.3,1.055,1.055,0,0,0,.161-.632,1.4,1.4,0,0,0-.115-.621.945.945,0,0,0-.4-.391,4.581,4.581,0,0,0-.771-.322L-17.5-6.923a6.071,6.071,0,0,1-2.668-1.863,4.717,4.717,0,0,1-.782-2.829,6.219,6.219,0,0,1,.345-2.254,2.966,2.966,0,0,1,1.069-1.38,4.86,4.86,0,0,1,1.92-.725A16.26,16.26,0,0,1-14.743-16.192ZM7.82-15.87l-3.864,6.3a3.851,3.851,0,0,1-.621.793,3.424,3.424,0,0,1-.667.517v.069a4.436,4.436,0,0,1,.759.586,3.26,3.26,0,0,1,.69.885L8.073,0H3.289L-1.242-8.3,3.2-15.87Zm-9.2,0v4.232a9.888,9.888,0,0,1-.149,1.69,8.262,8.262,0,0,1-.449,1.622q.23.713.414,1.53A6.8,6.8,0,0,1-1.38-5.313V0h-4.3V-15.87ZM.115-9.683v2.875h-2.76V-9.683ZM16.767-16.1a12.5,12.5,0,0,1,3.634.437,3.6,3.6,0,0,1,2.059,1.46,5.346,5.346,0,0,1,.655,2.887,5.582,5.582,0,0,1-.287,1.84A2.785,2.785,0,0,1,21.85-8.13a3.837,3.837,0,0,1-1.886.655v.138a2.959,2.959,0,0,1,.932.276,2.661,2.661,0,0,1,.92.747,3.215,3.215,0,0,1,.61,1.415L23.736,0H19.2L18.078-4.761a1.562,1.562,0,0,0-.506-.977A1.761,1.761,0,0,0,16.56-5.98Q14.9-6,13.823-6t-1.828-.023q-.747-.023-1.414-.069l.069-3.013h6.026a3.944,3.944,0,0,0,1.276-.161,1.042,1.042,0,0,0,.633-.587,3.065,3.065,0,0,0,.184-1.184,3.05,3.05,0,0,0-.184-1.2,1.046,1.046,0,0,0-.633-.575,3.944,3.944,0,0,0-1.276-.161q-2.277,0-3.853.023t-2.15.069l-.345-2.99q1.012-.115,1.909-.161t1.967-.058Q15.272-16.1,16.767-16.1Zm-2.208.23V0H10.327V-15.87Zm15.387-.069h2.726q1.391,0,2.737.057t2.472.2L37.674-12.6H31.74a1.085,1.085,0,0,0-.782.264.956.956,0,0,0-.276.724v7.36a.956.956,0,0,0,.276.724,1.085,1.085,0,0,0,.782.265h5.934l.207,3.082q-1.127.115-2.472.173T32.671.057Q31.28.069,29.946.069A3.579,3.579,0,0,1,27.37-.874a3.246,3.246,0,0,1-.989-2.461v-9.2a3.237,3.237,0,0,1,.989-2.472A3.6,3.6,0,0,1,29.946-15.939Zm-3.151,6.3H36.846v2.921H26.795Zm17.6-6.3h2.725q1.391,0,2.737.057t2.472.2L52.118-12.6H46.184a1.085,1.085,0,0,0-.782.264.956.956,0,0,0-.276.724v7.36a.956.956,0,0,0,.276.724,1.085,1.085,0,0,0,.782.265h5.934l.207,3.082q-1.127.115-2.472.173T47.115.057Q45.724.069,44.39.069a3.579,3.579,0,0,1-2.576-.943,3.246,3.246,0,0,1-.989-2.461v-9.2a3.237,3.237,0,0,1,.989-2.472A3.6,3.6,0,0,1,44.39-15.939Zm-3.151,6.3H51.29v2.921H41.239Z" transform="translate(149 66)"/><g transform="translate(51 42)"><path class="b" d="M3.3,0H15.5A16.5,16.5,0,0,1,32,16.5v0A16.5,16.5,0,0,1,15.5,33H3.3A3.3,3.3,0,0,1,0,29.7V3.3A3.3,3.3,0,0,1,3.3,0Z"/><path class="a" d="M57.48,10.683a.765.765,0,0,0-.62-.282H47.528l1.565-9.348A.57.57,0,0,0,48.62.466a.83.83,0,0,0-.84.222L36.43,16.236a.455.455,0,0,0-.015.564.764.764,0,0,0,.622.285H46.23l-1.24,9.362a.578.578,0,0,0,.489.575.826.826,0,0,0,.831-.232L57.472,11.244a.454.454,0,0,0,.009-.561Z" transform="translate(-31.635 3.276)"/></g></g></svg>